<?xml version="1.0" standalone="no"?>
<!DOCTYPE svg PUBLIC "-//W3C//DTD SVG 20010904//EN"
 "http://www.w3.org/TR/2001/REC-SVG-20010904/DTD/svg10.dtd">
<svg version="1.0" xmlns="http://www.w3.org/2000/svg"
 width="449.000000pt" height="477.000000pt" viewBox="0 0 449.000000 477.000000"
 preserveAspectRatio="xMidYMid meet">

<g transform="translate(0.000000,477.000000) scale(0.100000,-0.100000)"
fill="#000000" stroke="none">
<path d="M142 4730 c-2 -31 2 -40 15 -40 15 0 15 -1 0 -18 -15 -16 -17 -47
-18 -218 -1 -218 -7 -289 -26 -289 -7 0 -13 -4 -13 -10 0 -5 8 -10 18 -10 9 0
17 -6 16 -12 -1 -7 -2 -24 -2 -38 -2 -29 -18 -34 -25 -7 -3 11 -5 7 -6 -10 -1
-34 16 -45 35 -22 14 18 15 18 12 -1 -2 -11 -13 -24 -26 -30 -26 -11 -29 -24
-7 -30 54 -17 52 -15 33 -29 -22 -16 -22 -23 -2 -44 15 -14 15 -17 0 -27 -9
-7 -14 -14 -12 -16 3 -2 6 -58 7 -124 3 -115 2 -120 -20 -131 l-22 -11 23 -7
23 -6 -24 -19 c-16 -12 -20 -20 -11 -23 20 -6 21 -56 2 -67 -26 -15 -10 -21
31 -11 32 7 36 6 26 -6 -6 -8 -18 -14 -27 -14 -13 0 -12 -3 3 -20 12 -13 14
-20 5 -20 -7 0 -10 -7 -6 -17 4 -9 2 -19 -4 -23 -6 -4 -12 -20 -13 -36 -2 -28
-4 -29 -62 -30 l-60 -1 -1 -69 c-1 -38 1 -55 3 -37 4 31 5 32 61 35 54 3 57 4
62 33 4 24 11 31 35 35 17 3 31 12 31 20 1 8 2 21 3 28 0 6 14 12 31 12 l30 0
0 70 c0 66 1 70 22 67 15 -1 23 4 26 18 6 31 22 45 53 45 19 0 30 6 34 21 4
11 18 24 31 29 15 6 24 18 25 32 0 13 4 31 8 41 6 17 8 17 32 -1 33 -27 79
-19 79 13 0 26 9 31 73 40 37 6 47 11 49 29 3 18 11 22 63 26 50 4 60 8 63 25
7 34 21 43 66 43 53 -1 66 6 66 39 0 23 3 25 38 21 53 -7 82 6 82 37 0 21 5
25 28 25 15 0 32 -4 38 -10 6 -6 20 -4 39 6 19 10 42 13 71 8 23 -3 57 -1 76
5 20 7 51 8 78 3 39 -6 45 -11 48 -34 3 -28 31 -37 127 -39 66 -1 100 -12 100
-29 0 -8 5 -19 10 -23 6 -6 6 -10 -2 -14 -7 -2 -13 -11 -13 -19 0 -8 -7 -14
-15 -14 -8 0 -15 -7 -15 -15 0 -9 -9 -15 -25 -15 -16 0 -25 -6 -25 -15 0 -8
-7 -15 -15 -15 -9 0 -18 -7 -21 -15 -4 -8 -17 -15 -30 -15 -15 0 -24 -6 -24
-15 0 -8 -4 -15 -10 -15 -13 0 -50 -37 -50 -50 0 -5 -7 -10 -15 -10 -8 0 -15
-7 -15 -15 0 -8 -7 -15 -15 -15 -8 0 -15 -7 -15 -15 0 -8 -4 -15 -10 -15 -13
0 -50 -37 -50 -50 0 -5 -7 -10 -15 -10 -10 0 -15 -10 -15 -30 0 -20 -5 -30
-15 -30 -8 0 -15 -7 -15 -15 0 -8 -7 -15 -15 -15 -9 0 -15 -9 -15 -25 0 -24
-2 -25 -70 -25 -56 0 -70 -3 -70 -15 0 -10 -10 -15 -30 -15 -18 0 -33 -6 -36
-15 -4 -8 -17 -15 -30 -15 -15 0 -24 -6 -24 -15 0 -10 -10 -15 -29 -15 -16 0
-31 -6 -35 -15 -3 -8 -17 -15 -31 -15 -14 0 -28 -7 -31 -15 -4 -8 -17 -15 -30
-15 -15 0 -24 -6 -24 -15 0 -10 -10 -15 -30 -15 -18 0 -33 -6 -36 -15 -4 -8
-17 -15 -30 -15 -15 0 -24 -6 -24 -15 0 -8 -9 -15 -20 -15 -11 0 -20 -5 -20
-11 0 -7 -11 -22 -25 -35 -14 -13 -25 -28 -25 -34 0 -5 -5 -10 -11 -10 -22 0
-79 -68 -79 -93 0 -16 -7 -26 -20 -30 -13 -3 -20 -14 -20 -30 0 -14 -7 -27
-15 -31 -10 -3 -15 -19 -15 -46 0 -22 -4 -40 -10 -40 -5 0 -10 -25 -10 -55 0
-43 -3 -55 -16 -55 -14 0 -15 -25 -12 -215 l3 -215 -57 0 c-57 0 -57 0 -60
-32 -3 -29 -7 -33 -33 -34 -101 -4 -95 -2 -95 -34 0 -30 0 -30 -59 -30 l-58 0
-7 -46 c-3 -26 -6 -66 -6 -90 0 -40 2 -44 24 -44 30 0 35 7 38 54 2 28 7 36
23 37 l20 0 -20 9 c-18 8 -18 9 6 9 14 1 34 8 45 16 10 8 27 15 37 15 10 0 17
8 17 20 0 16 7 20 33 20 50 0 73 10 87 36 10 17 22 24 42 24 16 0 37 8 46 17
16 16 17 15 20 -10 2 -15 10 -27 18 -27 8 0 14 -7 14 -15 0 -8 9 -15 20 -15
11 0 20 -7 20 -15 0 -8 5 -15 10 -15 6 0 10 -7 10 -15 0 -8 7 -15 15 -15 8 0
15 -7 15 -15 0 -8 7 -15 16 -15 27 0 11 -35 -18 -38 -16 -2 -28 -11 -31 -23
-7 -26 -53 -26 -60 1 -7 28 -43 26 -83 -5 -18 -14 -37 -25 -43 -25 -5 0 -13
-9 -16 -20 -4 -11 -11 -18 -16 -14 -6 3 -21 -4 -34 -16 -21 -19 -28 -21 -54
-12 -21 7 -31 8 -31 1 0 -6 -4 -7 -10 -4 -5 3 -10 -1 -10 -9 0 -10 -16 -19
-42 -26 -24 -6 -58 -16 -76 -23 l-32 -11 0 -908 0 -908 2245 0 2245 0 0 940 0
940 -25 0 c-21 0 -25 5 -25 30 l0 30 -65 0 -65 0 0 30 c0 30 0 30 -59 30 -58
0 -60 1 -63 28 -3 25 -6 27 -63 32 -57 5 -60 7 -63 33 -3 26 -5 27 -62 27
l-59 0 -3 33 -3 32 -63 3 c-53 2 -63 6 -60 20 5 32 -12 42 -68 42 -53 0 -54 0
-54 30 l0 30 -65 0 -65 0 0 30 c0 25 -4 30 -25 30 -23 0 -25 4 -25 44 0 30 5
46 15 50 12 4 15 27 15 121 0 96 -3 115 -15 115 -10 0 -15 10 -15 30 0 20 -5
30 -15 30 -11 0 -15 12 -15 45 0 33 -4 45 -15 45 -9 0 -15 9 -15 25 0 14 -7
28 -15 31 -9 4 -15 19 -15 35 0 19 -5 29 -15 29 -8 0 -15 7 -15 15 0 8 -4 15
-10 15 -13 0 -50 37 -50 50 0 6 -7 10 -15 10 -8 0 -15 7 -15 15 0 8 -7 15 -15
15 -8 0 -15 7 -15 16 0 13 8 15 41 11 47 -5 78 -27 39 -27 -49 0 -3 -20 73
-31 71 -11 77 -13 77 -35 0 -20 5 -24 29 -24 47 0 91 -20 91 -41 0 -11 8 -20
18 -21 9 0 22 -2 27 -3 6 -2 24 -3 42 -4 27 -1 32 -5 35 -28 2 -23 9 -29 33
-31 17 -2 48 -9 70 -17 22 -8 79 -19 128 -25 48 -6 111 -19 140 -29 28 -11 70
-24 92 -29 76 -21 240 -73 257 -82 10 -6 20 -10 23 -10 3 0 5 196 5 435 l0
435 -24 0 c-21 0 -25 6 -28 33 -3 31 -5 32 -60 41 -55 8 -58 10 -58 37 0 26
-3 29 -35 29 l-35 0 1 48 c0 40 2 44 10 23 7 -19 12 -22 21 -13 18 18 28 14
28 -12 0 -33 26 -51 74 -52 90 -2 93 -3 73 -19 -18 -13 -18 -14 2 -24 11 -6
22 -11 25 -11 8 0 4 260 -4 290 l-7 25 -6 -25 c-3 -14 -4 -38 -3 -55 5 -38
-13 -77 -32 -70 -8 3 -21 -3 -28 -12 -13 -17 -15 -17 -25 0 -5 9 -20 17 -33
17 -29 0 -39 10 -25 27 9 10 6 13 -17 14 l-29 1 27 9 c23 9 26 14 21 40 -5 24
-2 29 15 29 13 0 22 -8 25 -22 l4 -23 2 23 c1 19 5 22 24 16 12 -4 25 -12 29
-18 5 -7 8 -4 8 7 0 10 7 20 15 23 12 5 13 10 4 20 -14 17 -3 34 22 34 18 0
19 8 19 130 l0 130 -60 0 -60 0 0 -30 0 -30 -60 0 c-60 0 -60 0 -60 -30 0 -29
-1 -29 -62 -32 l-63 -3 -3 -63 c-3 -62 -3 -63 -30 -60 -25 3 -27 7 -32 58 -4
45 -9 55 -25 58 -11 2 -27 6 -35 9 -8 4 -24 7 -35 7 -17 1 -20 9 -23 51 -2 39
0 46 8 33 13 -21 40 -24 40 -5 0 16 -38 40 -50 32 -6 -3 -19 0 -31 8 -15 11
-17 16 -7 20 8 4 6 6 -5 6 -11 1 -17 7 -14 14 2 6 -2 20 -11 30 -11 12 -12 17
-2 17 7 0 10 7 6 15 -4 12 3 15 29 15 32 0 35 2 35 30 l0 30 60 0 c41 0 60 4
62 13 0 6 2 17 2 22 4 27 20 35 72 35 53 0 54 0 54 30 0 29 1 29 63 32 59 3
62 4 65 30 3 26 6 27 65 30 61 3 62 3 59 31 -3 23 0 27 22 27 24 0 26 3 26 50
l0 50 -180 0 c-151 0 -180 -2 -180 -15 0 -10 -16 -15 -62 -17 -50 -2 -62 -6
-64 -21 -5 -37 -12 -44 -46 -41 -55 4 -77 -5 -80 -34 -3 -26 -6 -27 -65 -30
l-62 -3 -3 -57 c-3 -53 -5 -57 -28 -57 -23 0 -26 5 -34 58 -6 45 -12 57 -25
56 -9 -1 -23 1 -31 4 -8 3 -26 7 -40 9 -21 3 -25 9 -27 43 -2 22 -5 55 -8 73
l-6 32 -1113 0 -1114 0 -6 -22 c-3 -13 -6 -35 -6 -50 0 -23 -4 -28 -25 -28
-20 0 -25 -5 -25 -25 0 -22 -4 -25 -35 -25 -28 0 -35 -4 -35 -19 0 -27 -17
-37 -82 -51 -51 -10 -58 -14 -58 -36 0 -27 0 -27 -52 -15 -27 6 -42 5 -57 -6
-19 -13 -21 -12 -21 4 0 13 -5 10 -15 -11 -19 -36 -19 -39 4 -33 14 3 18 1 14
-9 -4 -10 4 -14 30 -14 70 0 93 10 106 45 11 32 11 32 57 23 58 -13 74 -6 74
32 0 27 3 30 29 30 17 0 33 -4 36 -10 3 -5 17 -10 31 -10 17 0 24 -5 24 -20 0
-15 -7 -20 -24 -20 -14 0 -28 -4 -31 -10 -3 -5 -15 -10 -26 -10 -10 0 -19 -4
-19 -10 0 -5 9 -10 21 -10 12 0 17 -4 14 -11 -4 -6 -13 -8 -21 -5 -9 3 -14 -2
-14 -14 0 -11 7 -20 15 -20 11 0 15 -12 15 -51 0 -32 -4 -48 -10 -44 -6 4 -9
14 -8 22 2 9 -2 18 -9 20 -8 3 -14 -16 -19 -56 -5 -51 -10 -60 -28 -63 -12 -2
-22 -12 -24 -23 -2 -11 -10 -25 -19 -32 -13 -10 -19 -27 -22 -56 -1 -5 -15 -7
-33 -5 -36 3 -52 28 -18 28 12 0 18 5 15 10 -11 18 -33 11 -41 -12 -11 -36
-46 -78 -65 -78 -22 0 -38 -26 -32 -51 3 -11 1 -19 -5 -19 -6 0 -12 10 -15 23
-3 22 -4 21 -14 -4 -7 -15 -19 -29 -28 -33 -10 -3 -15 -12 -11 -21 3 -8 1 -15
-4 -15 -6 0 -10 7 -10 15 0 8 -11 17 -24 21 -14 3 -27 12 -30 20 -4 12 -9 11
-26 -6 -11 -11 -27 -20 -35 -20 -8 0 -15 -4 -15 -10 0 -5 5 -10 10 -10 6 0 10
-4 10 -9 0 -10 -39 -27 -53 -23 -4 1 -10 -4 -13 -13 -10 -24 -35 9 -32 42 3
26 1 28 -37 28 -31 0 -39 -4 -36 -15 2 -8 7 -31 12 -50 5 -19 6 -67 3 -106
l-7 -71 -43 5 c-29 3 -44 1 -44 -7 0 -16 -30 -13 -36 4 -4 8 -12 15 -19 15
-17 0 -29 31 -15 40 6 3 11 30 11 58 1 36 7 56 20 68 11 9 19 26 19 36 0 11 9
22 20 25 18 5 37 37 32 56 -1 4 15 7 36 7 22 0 53 7 71 16 26 13 30 19 20 30
-9 11 -6 16 12 23 13 5 27 7 32 4 4 -2 7 5 7 16 0 18 -38 51 -41 36 -1 -3 -2
-9 -3 -15 0 -5 -5 -9 -11 -7 -5 1 -9 5 -7 10 3 9 -29 9 -44 -1 -7 -4 -13 -16
-15 -27 -4 -16 -13 -20 -54 -23 -66 -3 -78 -8 -70 -31 5 -16 0 -19 -32 -22
-64 -6 -83 0 -83 27 0 23 3 24 60 24 l60 0 0 30 c0 32 6 34 93 32 24 -1 27 3
27 33 l0 34 63 3 c47 2 62 7 63 18 1 8 2 20 2 27 1 7 24 13 60 15 54 3 57 5
60 30 3 29 27 41 74 40 18 0 32 6 38 18 13 25 -13 40 -69 40 -46 0 -44 -4 -46
115 -1 28 -2 89 -3 138 l-2 87 -30 0 c-36 0 -36 -2 -30 -175 3 -101 1 -115
-15 -115 -17 0 -20 -16 -5 -25 20 -12 9 -23 -29 -29 -26 -4 -44 -14 -55 -31
-9 -14 -23 -25 -31 -25 -8 0 -15 -7 -15 -15 0 -8 7 -15 15 -15 8 0 15 -5 15
-11 0 -6 -10 -9 -22 -7 -21 3 -23 10 -29 93 -10 140 -10 333 0 340 5 3 12 1
16 -5 4 -6 11 -8 16 -5 32 20 -12 25 -229 25 l-239 0 -1 -40z m2212 -146 c21
-8 21 -54 1 -54 -9 0 -15 -9 -15 -23 0 -12 -9 -30 -20 -40 -11 -9 -20 -26 -20
-37 0 -11 -7 -20 -15 -20 -9 0 -15 -9 -15 -25 0 -14 -6 -28 -14 -31 -8 -3 -18
-19 -21 -35 -4 -16 -13 -29 -21 -29 -8 0 -14 -10 -14 -25 0 -15 -6 -25 -14
-25 -8 0 -17 -11 -20 -25 -7 -29 -26 -34 -26 -6 0 10 -7 21 -15 25 -8 3 -15
12 -15 21 0 8 7 15 15 15 9 0 15 10 15 26 0 17 6 28 19 31 12 3 21 15 23 29 2
14 8 24 13 24 6 0 12 14 15 32 3 18 11 32 17 31 6 -1 14 11 18 26 3 16 13 32
21 35 8 3 14 17 14 31 0 15 6 25 14 25 8 0 16 7 20 15 6 16 16 18 40 9z
m-1673 -188 c5 3 9 -2 9 -11 0 -23 -24 -13 -27 11 -2 10 0 13 3 6 3 -6 10 -10
15 -6z m-183 -21 c-3 -3 -9 2 -12 12 -6 14 -5 15 5 6 7 -7 10 -15 7 -18z
m-328 -214 c0 -11 5 -23 10 -26 6 -3 10 -10 10 -16 0 -5 -8 -1 -18 9 -19 18
-27 52 -11 52 5 0 9 -9 9 -19z m1960 -6 c0 -14 -4 -25 -10 -25 -5 0 -10 11
-10 25 0 14 5 25 10 25 6 0 10 -11 10 -25z m-30 -69 c0 -3 -4 -8 -10 -11 -5
-3 -10 -1 -10 4 0 6 5 11 10 11 6 0 10 -2 10 -4z m-1910 -108 c0 -56 -4 -98
-8 -92 -8 9 -4 194 4 194 2 0 4 -46 4 -102z m1870 72 c0 -5 -4 -10 -10 -10 -5
0 -10 5 -10 10 0 6 5 10 10 10 6 0 10 -4 10 -10z m-630 -14 c0 -3 -4 -8 -10
-11 -5 -3 -10 -1 -10 4 0 6 5 11 10 11 6 0 10 -2 10 -4z m1024 -141 c3 -10 19
-15 46 -15 22 0 40 -4 40 -10 0 -5 14 -10 30 -10 18 0 33 -6 36 -15 4 -8 16
-15 29 -15 14 0 25 -7 28 -20 3 -14 14 -20 32 -20 26 0 55 -20 55 -38 0 -5 9
-12 20 -15 11 -3 20 -12 20 -21 0 -9 7 -16 15 -16 8 0 15 -5 15 -11 0 -13 25
-39 38 -39 5 0 12 -9 15 -20 3 -11 12 -20 21 -20 10 0 16 -9 16 -25 0 -14 5
-25 10 -25 6 0 10 -11 10 -25 0 -14 7 -28 15 -31 10 -4 15 -20 15 -50 0 -31 4
-44 14 -44 8 0 17 -13 21 -30 4 -16 11 -30 16 -30 5 0 9 -47 9 -105 0 -63 -4
-105 -10 -105 -5 0 -10 -11 -10 -24 0 -15 -7 -26 -20 -29 -15 -4 -20 -14 -20
-36 0 -17 -5 -31 -11 -31 -13 0 -33 -20 -42 -42 -12 -33 -27 -18 -27 26 0 35
-4 45 -19 49 -16 4 -19 11 -14 46 5 33 3 41 -11 41 -12 0 -16 10 -16 45 0 33
-4 45 -15 45 -9 0 -15 9 -15 24 0 27 -17 43 -31 29 -12 -12 1 -53 17 -53 10 0
14 -13 14 -45 0 -33 4 -45 15 -45 11 0 15 -12 15 -45 0 -25 5 -45 10 -45 6 0
10 -30 10 -71 0 -68 -1 -72 -35 -105 -20 -19 -40 -34 -45 -34 -6 0 -10 -7 -10
-15 0 -9 -9 -15 -24 -15 -13 0 -26 -7 -30 -15 -3 -8 -17 -15 -31 -15 -14 0
-28 -7 -31 -15 -4 -9 -19 -15 -35 -15 -19 0 -29 -5 -29 -15 0 -9 -9 -15 -24
-15 -13 0 -26 -7 -30 -15 -3 -10 -19 -15 -45 -15 -25 0 -41 -5 -45 -15 -4 -11
-21 -15 -61 -15 -42 0 -55 -3 -55 -15 0 -12 13 -15 60 -15 47 0 60 3 60 15 0
11 12 15 45 15 25 0 45 5 45 10 0 6 14 10 31 10 17 0 28 -4 24 -10 -3 -5 -17
-10 -31 -10 -15 0 -24 -6 -24 -15 0 -11 -12 -15 -45 -15 -33 0 -45 -4 -45 -15
0 -12 -13 -15 -60 -15 -47 0 -60 3 -60 15 0 12 -13 15 -59 15 -43 0 -60 -4
-65 -15 -4 -11 -21 -15 -66 -15 -33 0 -60 -4 -60 -10 0 -5 -17 -10 -39 -10
-30 0 -40 -4 -44 -20 -6 -25 -67 -29 -67 -5 0 8 -4 15 -10 15 -5 0 -10 -7 -10
-15 0 -8 5 -15 10 -15 6 0 10 -4 10 -10 0 -5 -10 -10 -21 -10 -12 0 -36 -16
-55 -35 -18 -19 -42 -35 -53 -35 -12 0 -21 -5 -21 -10 0 -13 -57 -70 -70 -70
-6 0 -10 -9 -10 -20 0 -11 -7 -20 -15 -20 -9 0 -15 -9 -15 -24 0 -23 -16 -36
-46 -36 -8 0 -14 7 -14 15 0 9 -9 15 -25 15 -14 0 -28 7 -31 15 -4 9 -19 15
-35 15 -19 0 -29 5 -29 15 0 8 -7 15 -15 15 -8 0 -15 5 -15 11 0 15 -65 79
-80 79 -5 0 -10 7 -10 15 0 9 -7 18 -15 21 -8 4 -15 17 -15 30 0 15 -6 24 -15
24 -10 0 -15 11 -15 35 0 24 -5 35 -15 35 -9 0 -15 9 -15 24 0 13 -7 26 -15
30 -10 3 -15 19 -15 46 0 29 -4 40 -15 40 -11 0 -15 12 -15 45 0 33 -4 45 -15
45 -13 0 -15 23 -15 150 0 127 2 150 15 150 12 0 15 13 15 60 0 47 3 60 15 60
11 0 15 12 15 45 0 33 4 45 15 45 11 0 15 12 15 45 0 33 4 45 15 45 8 0 15 7
15 15 0 8 7 15 15 15 10 0 15 10 15 30 0 20 5 30 15 30 8 0 15 7 15 15 0 8 7
15 15 15 8 0 15 7 15 15 0 8 7 15 15 15 8 0 15 7 15 15 0 8 7 15 15 15 8 0 15
7 15 15 0 8 7 15 15 15 8 0 15 5 15 10 0 6 7 10 15 10 8 0 15 9 15 20 0 16 7
20 30 20 20 0 30 5 30 15 0 8 7 15 15 15 8 0 15 5 15 10 0 6 7 10 15 10 8 0
15 -4 15 -10 0 -5 -7 -10 -15 -10 -13 0 -15 -21 -15 -125 0 -104 2 -125 15
-125 8 0 15 -7 15 -15 0 -8 5 -15 10 -15 6 0 22 -12 36 -27 l26 -28 204 -4
c182 -3 204 -1 204 13 0 12 10 16 45 16 33 0 45 4 45 15 0 11 12 15 45 15 33
0 45 4 45 15 0 10 10 15 29 15 16 0 36 7 45 15 21 21 166 22 166 0 0 -11 8
-13 30 -8 26 5 30 3 30 -16 0 -16 6 -21 25 -21 18 0 25 5 25 20 0 15 -7 20
-24 20 -14 0 -28 5 -31 10 -3 6 -17 10 -31 10 -15 0 -24 6 -24 15 0 8 -7 15
-15 15 -8 0 -15 7 -15 15 0 8 7 15 15 15 12 0 15 17 15 90 0 73 -3 90 -15 90
-10 0 -15 11 -15 35 0 19 -4 35 -10 35 -9 0 -80 66 -80 75 0 13 49 3 54 -10z
m-2264 -90 c0 -36 -3 -65 -8 -65 -5 0 -7 50 -2 123 0 4 2 7 5 7 3 0 5 -29 5
-65z m2030 40 c0 -8 7 -15 15 -15 10 0 15 -10 15 -30 0 -18 6 -33 15 -36 10
-4 15 -20 15 -50 0 -42 -1 -44 -30 -44 -20 0 -30 -5 -30 -15 0 -11 -12 -15
-45 -15 -33 0 -45 -4 -45 -15 0 -10 -10 -15 -30 -15 -20 0 -30 -5 -30 -15 0
-13 -22 -15 -135 -15 l-135 0 0 74 c0 56 4 75 15 80 8 3 15 14 15 25 0 27 42
71 69 71 12 0 21 6 21 15 0 13 23 15 150 15 127 0 150 -2 150 -15z m2065 -25
c3 -5 -1 -10 -9 -10 -9 0 -16 5 -16 10 0 6 4 10 9 10 6 0 13 -4 16 -10z
m-4095 -170 c0 -51 -9 -60 -40 -40 -13 8 -13 10 2 10 21 0 33 19 20 32 -11 11
-4 48 9 48 5 0 9 -22 9 -50z m2210 5 c0 -10 10 -15 30 -15 17 0 30 -3 30 -8 0
-13 -38 -41 -64 -48 -14 -3 -27 -12 -30 -20 -3 -9 -20 -14 -45 -14 -25 0 -41
-5 -45 -15 -3 -8 -16 -15 -30 -15 -13 0 -26 -6 -28 -12 -3 -9 -25 -13 -61 -13
-48 0 -57 -3 -57 -17 0 -17 -15 -18 -180 -18 l-180 0 0 35 c0 24 5 35 15 35 8
0 15 5 15 10 0 6 57 10 150 10 127 0 150 2 150 15 0 10 10 15 30 15 20 0 30 5
30 15 0 11 12 15 45 15 33 0 45 4 45 15 0 10 10 15 30 15 20 0 30 5 30 15 0
12 13 15 60 15 47 0 60 -3 60 -15z m-2213 -127 c-3 -8 -6 -5 -6 6 -1 11 2 17
5 13 3 -3 4 -12 1 -19z m-1 -85 c-10 -10 -19 5 -10 18 6 11 8 11 12 0 2 -7 1
-15 -2 -18z m4 -33 c0 -5 -4 -10 -10 -10 -5 0 -10 5 -10 10 0 6 5 10 10 10 6
0 10 -4 10 -10z m1010 -70 c0 -5 -11 -10 -25 -10 -16 0 -25 -6 -25 -15 0 -10
-10 -15 -30 -15 -23 0 -30 -4 -30 -20 0 -16 7 -20 30 -20 20 0 30 5 30 15 0 9
9 15 25 15 14 0 25 -4 25 -10 0 -5 -7 -10 -15 -10 -8 0 -23 -9 -32 -20 -10
-11 -28 -20 -40 -20 -14 0 -23 -6 -23 -15 0 -10 -10 -15 -30 -15 -20 0 -30 -5
-30 -15 0 -8 -7 -15 -15 -15 -8 0 -15 -7 -15 -15 0 -8 -4 -15 -10 -15 -13 0
-50 -37 -50 -50 0 -5 -7 -10 -15 -10 -9 0 -15 -9 -15 -25 0 -14 -7 -28 -15
-31 -10 -4 -15 -20 -15 -50 0 -32 -4 -44 -15 -44 -10 0 -15 -10 -15 -31 0 -38
-24 -35 -28 4 -2 19 1 27 12 27 12 0 16 11 16 45 0 33 4 45 15 45 10 0 15 10
15 30 0 20 5 30 15 30 8 0 15 6 15 13 0 14 35 47 50 47 6 0 10 7 10 15 0 8 7
15 15 15 8 0 15 7 15 15 0 8 7 15 15 15 8 0 15 7 15 15 0 10 10 15 30 15 20 0
30 5 30 15 0 10 -10 15 -30 15 -16 0 -30 -4 -30 -10 0 -5 -7 -10 -15 -10 -8 0
-15 -7 -15 -15 0 -8 -7 -15 -15 -15 -8 0 -15 -6 -15 -13 0 -14 -35 -47 -50
-47 -6 0 -10 -7 -10 -15 0 -8 -7 -15 -15 -15 -8 0 -15 -9 -15 -20 0 -11 -7
-20 -15 -20 -9 0 -15 -9 -15 -24 0 -13 -7 -26 -15 -30 -10 -3 -15 -19 -15 -46
0 -27 -5 -43 -15 -46 -10 -4 -15 -20 -15 -50 0 -37 3 -44 20 -44 22 0 27 -15
8 -26 -6 -4 -16 0 -23 9 -18 25 -35 21 -35 -8 0 -14 -7 -28 -15 -31 -8 -4 -15
-12 -15 -20 0 -8 -7 -14 -15 -14 -8 0 -15 -4 -15 -10 0 -5 -7 -10 -15 -10 -8
0 -15 -7 -15 -15 0 -8 -7 -15 -15 -15 -10 0 -15 -10 -15 -30 0 -20 -5 -30 -15
-30 -9 0 -15 -9 -15 -25 0 -14 -7 -28 -15 -31 -9 -4 -15 -19 -15 -35 0 -22 -5
-29 -20 -29 -17 0 -20 -7 -20 -45 0 -33 -4 -45 -15 -45 -11 0 -15 -11 -15 -40
0 -22 -4 -40 -9 -40 -5 0 -12 -40 -15 -90 -4 -49 -12 -90 -17 -90 -5 0 -9 16
-9 35 0 19 -4 35 -10 35 -5 0 -10 11 -10 25 0 16 -6 25 -15 25 -22 0 -22 354
0 376 9 10 15 34 15 65 0 27 5 49 10 49 6 0 10 20 10 45 0 33 4 45 15 45 8 0
15 9 15 19 0 30 11 51 26 51 8 0 14 10 14 25 0 14 5 25 10 25 6 0 10 9 10 20
0 11 5 20 11 20 7 0 22 11 35 25 13 14 28 25 34 25 5 0 10 7 10 15 0 9 7 18
15 21 8 4 15 13 15 21 0 11 7 13 25 9 18 -5 27 -2 31 9 4 9 18 15 35 15 18 0
29 5 29 14 0 8 14 17 30 21 17 4 30 13 30 21 0 9 11 14 30 14 17 0 30 5 30 10
0 6 14 10 30 10 20 0 30 5 30 15 0 9 9 15 25 15 14 0 28 6 31 14 3 8 19 18 35
21 16 4 29 11 29 16 0 5 25 9 55 9 30 0 55 -4 55 -10z m1850 -225 c0 -14 -4
-25 -10 -25 -5 0 -10 11 -10 25 0 14 5 25 10 25 6 0 10 -11 10 -25z m-26 -50
c3 -8 17 -15 31 -15 14 0 25 -4 25 -10 0 -5 -8 -10 -17 -10 -10 0 -28 -3 -40
-6 -20 -6 -23 -3 -23 25 0 32 14 42 24 16z m306 -65 c27 -28 50 -59 50 -69 0
-10 9 -21 20 -24 14 -3 20 -14 20 -31 0 -14 5 -26 10 -26 6 0 10 -20 10 -45 0
-33 4 -45 15 -45 10 0 15 -10 15 -30 0 -23 4 -30 20 -30 19 0 20 -7 20 -120 0
-113 -1 -120 -20 -120 -17 0 -20 -7 -20 -40 0 -27 -5 -43 -15 -46 -9 -4 -15
-19 -15 -35 0 -19 -5 -29 -15 -29 -9 0 -15 -9 -15 -25 0 -14 -4 -25 -10 -25
-5 0 -10 -14 -10 -31 0 -22 -5 -32 -20 -36 -13 -4 -20 -14 -20 -30 0 -25 -57
-93 -79 -93 -6 0 -11 -7 -11 -15 0 -8 -5 -15 -11 -15 -7 0 -9 -9 -6 -23 4 -12
7 -56 8 -97 2 -60 6 -78 20 -88 11 -8 19 -25 19 -43 0 -29 -30 -69 -51 -69 -6
0 -9 -7 -5 -15 3 -9 -1 -15 -11 -15 -13 0 -15 -8 -10 -45 6 -40 5 -45 -13 -45
-11 0 -20 5 -20 10 0 6 -7 10 -15 10 -8 0 -15 6 -15 14 0 7 -9 16 -20 19 -14
3 -20 14 -20 31 0 16 -6 26 -14 26 -8 0 -17 13 -21 29 -3 16 -13 32 -21 35
-17 7 -18 45 -1 68 7 9 24 18 37 20 14 1 26 11 28 21 5 26 -54 24 -63 -3 -4
-13 -15 -20 -31 -20 -15 0 -24 -6 -24 -15 0 -8 -9 -15 -20 -15 -11 0 -20 -4
-20 -10 0 -5 -11 -12 -25 -16 -14 -3 -25 -10 -25 -15 0 -5 -9 -9 -20 -9 -19 0
-20 7 -20 130 0 72 -4 130 -9 130 -15 0 -21 -40 -21 -139 0 -83 -2 -96 -22
-112 -11 -11 -36 -19 -53 -19 -20 0 -35 -6 -39 -15 -4 -11 -22 -15 -75 -15
-52 0 -70 -4 -75 -15 -4 -11 -22 -15 -75 -15 -54 0 -70 -3 -75 -16 -5 -14 -26
-15 -164 -10 -86 3 -165 6 -174 6 -16 1 -18 14 -18 126 0 104 2 124 15 124 10
0 15 10 15 29 0 16 6 31 15 35 8 3 15 17 15 31 0 14 5 25 10 25 6 0 10 12 10
26 0 17 6 28 20 31 15 4 20 14 20 39 0 19 5 34 10 34 15 0 80 64 80 79 0 6 6
11 14 11 8 0 16 7 20 15 3 8 15 15 26 15 11 0 20 5 20 10 0 6 13 10 30 10 19
0 33 7 40 20 6 12 21 20 35 20 16 0 25 6 25 15 0 11 11 15 40 15 22 0 40 5 40
10 0 6 14 10 30 10 20 0 30 5 30 15 0 10 10 15 31 15 22 0 32 5 36 20 3 13 14
20 29 20 13 0 24 5 24 10 0 6 14 10 30 10 18 0 33 6 36 15 4 8 16 15 29 15 14
0 25 7 28 20 3 13 14 20 30 20 14 0 27 7 31 15 3 9 18 15 36 15 16 0 30 4 30
9 0 5 22 12 50 16 47 6 80 25 46 25 -23 0 -19 31 4 37 11 3 20 10 20 15 0 13
26 38 39 38 6 0 11 16 11 35 0 28 4 35 20 35 16 0 20 7 20 30 0 17 5 30 10 30
6 0 10 11 10 25 0 14 7 28 15 31 10 4 15 20 15 44 0 36 8 70 16 70 1 0 26 -23
54 -50z m-339 -3 c-13 -13 -26 -3 -16 12 3 6 11 8 17 5 6 -4 6 -10 -1 -17z
m119 13 c0 -5 -4 -10 -10 -10 -5 0 -10 5 -10 10 0 6 5 10 10 10 6 0 10 -4 10
-10z m-145 -30 c3 -6 -1 -13 -9 -16 -9 -3 -16 -12 -16 -20 0 -8 -7 -14 -15
-14 -8 0 -15 -7 -15 -15 0 -8 -7 -15 -15 -15 -8 0 -15 7 -15 15 0 8 7 15 15
15 8 0 15 7 15 15 0 8 7 15 15 15 8 0 15 7 15 15 0 17 16 20 25 5z m175 -5 c0
-8 -4 -15 -10 -15 -5 0 -10 7 -10 15 0 8 5 15 10 15 6 0 10 -7 10 -15z m30
-25 c0 -5 -4 -10 -10 -10 -5 0 -10 5 -10 10 0 6 5 10 10 10 6 0 10 -4 10 -10z
m-290 -71 c0 -5 -7 -9 -15 -9 -8 0 -15 -7 -15 -15 0 -8 -7 -15 -15 -15 -8 0
-15 -7 -15 -15 0 -8 -7 -15 -15 -15 -8 0 -15 7 -15 15 0 8 7 15 15 15 8 0 15
7 15 15 0 8 6 15 14 15 8 0 17 7 20 16 6 15 26 11 26 -7z m-2005 -81 c4 -3 8
-14 9 -24 2 -9 11 -18 20 -20 20 -3 47 -35 40 -46 -10 -15 -64 -9 -64 7 0 8
-7 15 -15 15 -8 0 -15 6 -15 14 0 8 -6 16 -14 19 -22 9 -8 47 15 44 10 -2 21
-6 24 -9z m1915 -9 c0 -5 -7 -9 -15 -9 -15 0 -20 12 -9 23 8 8 24 -1 24 -14z
m-62 -27 c2 -7 -3 -12 -12 -12 -9 0 -16 7 -16 16 0 17 22 14 28 -4z m-58 -27
c0 -8 -7 -15 -15 -15 -8 0 -15 7 -15 15 0 8 7 15 15 15 8 0 15 -7 15 -15z
m-60 -35 c0 -5 11 -10 25 -10 16 0 25 -6 25 -15 0 -10 10 -15 30 -15 20 0 30
-5 30 -15 0 -10 -10 -15 -30 -15 -20 0 -30 5 -30 15 0 9 -9 15 -25 15 -16 0
-25 6 -25 15 0 8 -7 15 -15 15 -8 0 -15 5 -15 10 0 6 7 10 15 10 8 0 15 -4 15
-10z m140 -85 c0 -8 -4 -15 -10 -15 -5 0 -10 7 -10 15 0 8 5 15 10 15 6 0 10
-7 10 -15z m30 -45 c0 -31 -16 -41 -26 -15 -8 19 2 45 16 45 5 0 10 -13 10
-30z m-470 10 c0 -6 -27 -10 -60 -10 -33 0 -60 4 -60 10 0 6 27 10 60 10 33 0
60 -4 60 -10z m-122 -27 c3 -10 -13 -13 -57 -13 -57 0 -71 6 -54 24 12 12 106
2 111 -11z m-150 -25 c-7 -20 -58 -23 -58 -4 0 11 10 16 31 16 20 0 29 -4 27
-12z m682 2 c0 -5 -4 -10 -10 -10 -5 0 -10 5 -10 10 0 6 5 10 10 10 6 0 10 -4
10 -10z m-590 -31 c0 -7 8 -18 18 -25 15 -12 14 -13 -15 -14 -23 0 -33 5 -33
15 0 10 -10 15 -31 15 -17 0 -28 4 -24 10 9 14 85 13 85 -1z m-1046 -35 c7
-19 -3 -64 -15 -64 -5 0 -9 18 -9 40 0 40 13 53 24 24z m-326 -51 c2 -33 -1
-42 -16 -47 -14 -5 -18 -13 -14 -31 3 -18 0 -25 -12 -25 -12 0 -16 -10 -16
-45 0 -33 -4 -45 -15 -45 -12 0 -15 -17 -15 -90 l0 -90 -30 0 -30 0 0 119 c0
96 3 120 15 125 10 3 15 19 15 46 0 29 4 40 15 40 10 0 15 10 15 30 0 20 5 30
15 30 8 0 15 7 15 16 0 11 8 14 28 12 24 -3 27 -8 30 -45z m262 -5 c-1 -35 -3
-40 -11 -25 -10 17 -5 67 6 67 3 0 5 -19 5 -42z m1170 27 c0 -8 5 -15 10 -15
19 0 50 -40 50 -65 0 -16 6 -25 15 -25 8 0 15 -4 15 -10 0 -5 -7 -10 -15 -10
-8 0 -15 5 -15 10 0 6 -7 10 -15 10 -10 0 -15 11 -15 35 0 24 -5 35 -15 35 -8
0 -15 5 -15 10 0 6 -7 10 -15 10 -8 0 -15 7 -15 15 0 8 7 15 15 15 8 0 15 -7
15 -15z m305 5 c-3 -5 -10 -10 -16 -10 -5 0 -9 5 -9 10 0 6 7 10 16 10 8 0 12
-4 9 -10z m-390 -90 c-3 -5 -1 -10 4 -10 6 0 11 5 11 10 0 16 27 12 34 -5 3
-8 15 -15 26 -15 26 0 60 -34 60 -60 0 -13 -9 -22 -25 -26 -14 -3 -25 -13 -25
-22 0 -13 -22 -14 -191 -9 -106 4 -194 9 -197 12 -10 10 4 14 56 16 35 2 52 7
52 16 0 7 7 13 15 13 9 0 28 12 43 27 15 15 43 30 62 33 19 3 34 12 33 18 -2
7 8 12 23 12 14 0 23 -4 19 -10z m1457 -72 c3 -33 4 -33 60 -36 53 -3 57 -5
60 -30 3 -25 7 -27 63 -32 56 -5 60 -7 63 -32 3 -25 7 -27 60 -30 57 -3 57 -3
60 -37 l3 -33 60 4 c48 4 59 1 60 -11 1 -9 2 -23 3 -31 1 -11 17 -16 64 -18
61 -3 62 -3 62 -32 0 -27 3 -30 33 -31 17 0 26 -3 19 -6 -9 -4 -10 -8 -2 -18
16 -20 -5 -28 -48 -19 -20 4 -40 7 -44 6 -5 -1 -8 4 -8 12 0 8 -14 18 -32 21
-18 4 -36 12 -40 18 -4 7 -11 7 -21 -1 -16 -14 -28 -6 -20 14 3 8 -7 21 -26
31 -17 10 -31 24 -31 31 0 6 -6 12 -14 12 -8 0 -16 5 -18 10 -3 11 -84 21
-105 13 -7 -3 -13 -16 -13 -29 0 -20 -5 -24 -29 -24 -17 0 -33 -4 -36 -10 -9
-15 -41 -12 -55 5 -7 9 -29 15 -53 15 -27 0 -48 7 -63 21 -14 13 -39 21 -70
24 -119 10 -174 18 -174 26 0 5 7 9 15 9 14 0 19 12 16 33 0 4 6 7 14 7 9 0
15 9 15 25 0 16 6 25 15 25 10 0 15 11 15 35 0 28 4 35 20 35 14 0 20 7 20 24
0 28 11 34 62 35 34 1 37 -1 40 -31z m-2036 7 c4 -9 19 -15 35 -15 19 0 29 -5
29 -15 0 -8 7 -15 15 -15 9 0 15 -9 15 -25 0 -15 -6 -25 -14 -25 -9 0 -16 -16
-20 -44 l-7 -44 -72 -12 c-40 -7 -94 -14 -122 -15 -27 -1 -60 -6 -72 -10 -20
-6 -23 -4 -23 21 0 16 3 46 6 66 6 34 9 37 43 40 31 3 36 7 39 30 3 25 7 27
60 30 50 3 57 6 60 26 4 25 20 29 28 7z m-1231 -125 c-3 -5 -11 -10 -16 -10
-6 0 -7 5 -4 10 3 6 11 10 16 10 6 0 7 -4 4 -10z m1595 -85 c0 -33 -4 -45 -15
-45 -12 0 -15 -30 -17 -187 l-3 -188 -27 -3 c-20 -2 -28 1 -28 12 0 9 -7 16
-15 16 -13 0 -15 25 -15 165 0 140 2 165 15 165 11 0 15 12 15 45 0 33 4 45
15 45 8 0 15 5 15 10 0 6 14 10 30 10 29 0 30 -2 30 -45z m2030 -61 c6 -14 10
-31 10 -39 0 -22 -36 -27 -74 -11 -43 18 -49 41 -8 33 24 -5 62 11 62 26 0 3
-8 8 -17 10 -17 4 -17 5 0 6 10 1 21 -10 27 -25z m-3311 -23 c9 -6 10 -10 2
-16 -15 -8 -41 1 -41 15 0 12 20 13 39 1z m637 -26 c3 -7 0 -55 -6 -106 -11
-83 -27 -232 -29 -266 -1 -7 -8 -13 -16 -13 -11 0 -15 -11 -15 -41 0 -32 -4
-42 -19 -46 -11 -3 -22 -12 -25 -20 -4 -10 -14 -13 -31 -9 -18 5 -25 2 -25 -9
0 -11 -10 -15 -35 -15 -25 0 -35 -4 -35 -16 0 -11 -5 -14 -16 -10 -9 3 -42 6
-75 6 -46 0 -59 3 -59 15 0 10 -10 15 -30 15 -23 0 -30 4 -30 20 0 12 -7 20
-16 20 -11 0 -14 5 -10 16 3 9 6 36 6 60 0 32 4 44 15 44 8 0 15 5 15 10 0 6
32 10 75 10 58 0 77 4 81 15 4 8 12 15 20 15 10 0 14 12 14 39 0 33 4 40 26
45 18 5 24 11 20 23 -6 14 9 167 19 200 6 18 175 16 181 -2z m3044 -45 c0 -17
-5 -25 -12 -22 -5 1 -8 -2 -8 -8 0 -5 5 -10 12 -10 6 0 9 -2 6 -5 -3 -3 -13
-3 -22 1 -19 7 -22 40 -3 47 20 9 27 8 27 -3z m-3654 -105 c4 -8 17 -15 30
-15 19 0 24 -5 24 -25 0 -25 -31 -65 -50 -65 -6 0 -10 -36 -10 -88 0 -75 3
-90 20 -105 29 -25 26 -47 -8 -47 -15 0 -33 -5 -40 -12 -7 -7 -51 -14 -102
-16 -76 -4 -91 -2 -96 12 -4 10 -18 16 -35 16 -19 0 -29 5 -29 15 0 8 -7 15
-15 15 -9 0 -15 9 -15 25 0 14 -7 28 -15 31 -19 8 -19 50 0 58 9 3 15 18 15
36 0 20 5 30 15 30 8 0 15 9 15 20 0 25 34 60 59 60 10 0 21 9 24 20 4 15 14
20 36 20 21 0 31 5 31 15 0 22 138 22 146 0z m2978 -120 c3 -8 17 -15 31 -15
14 0 28 -7 31 -15 4 -9 19 -15 35 -15 16 0 29 -4 29 -10 0 -5 7 -10 15 -10 8
0 15 -7 15 -15 0 -8 6 -15 14 -15 8 0 16 -7 20 -15 3 -8 12 -15 21 -15 9 0 15
-9 15 -25 0 -15 6 -25 14 -25 10 0 16 -23 20 -92 4 -51 9 -105 12 -120 4 -21
2 -28 -10 -28 -11 0 -16 9 -16 30 0 27 -3 30 -34 30 -61 0 -65 -5 -59 -71 l6
-59 -51 0 c-28 0 -54 5 -57 10 -3 6 -19 10 -35 10 -15 0 -30 7 -34 15 -3 9
-18 15 -36 15 -20 0 -30 5 -30 15 0 8 -7 15 -15 15 -8 0 -15 5 -15 10 0 6 -7
10 -15 10 -9 0 -18 12 -21 30 -4 17 -13 30 -20 30 -9 0 -14 11 -14 30 0 19 -5
30 -14 30 -15 0 -20 12 -31 73 -4 28 -2 39 10 43 8 4 15 18 15 34 0 27 0 27
91 35 90 7 90 7 87 33 -4 32 -24 40 -31 12 -4 -17 -13 -20 -66 -20 -61 0 -61
0 -61 30 0 29 0 29 68 33 37 2 77 4 88 5 12 1 24 -5 28 -13z m-1313 -220 c4
-33 7 -92 8 -130 1 -57 5 -74 21 -88 24 -20 28 -77 5 -77 -8 0 -15 -7 -15 -15
0 -8 -7 -15 -15 -15 -8 0 -15 -6 -15 -14 0 -8 -6 -16 -14 -19 -9 -4 -16 -23
-18 -48 -3 -39 -28 -70 -28 -35 0 9 -7 16 -15 16 -8 0 -15 7 -15 16 0 9 -9 18
-20 21 -13 3 -20 14 -20 28 0 13 -7 25 -15 29 -8 3 -15 17 -15 31 0 15 -6 25
-14 25 -12 0 -15 16 -16 73 0 39 -4 113 -8 164 l-7 92 90 4 c49 2 97 3 105 2
11 0 17 -17 21 -60z m-1981 -10 c13 -20 30 -35 41 -35 10 0 19 -7 19 -15 0 -8
-5 -15 -11 -15 -8 0 -9 -15 -5 -45 5 -29 4 -45 -3 -45 -6 0 -11 -10 -11 -23 0
-26 -21 -77 -32 -77 -5 0 -8 -7 -8 -15 0 -8 -4 -15 -10 -15 -5 0 -10 -9 -10
-19 0 -10 -7 -22 -16 -25 -8 -3 -13 -10 -10 -15 3 -5 -1 -11 -9 -15 -9 -3 -15
0 -15 8 0 8 -8 16 -18 18 -14 4 -23 26 -37 89 -12 59 -14 84 -6 87 6 2 11 10
11 18 0 7 12 17 26 20 25 6 26 10 20 49 -4 33 -2 44 9 49 8 3 15 10 15 16 0
12 21 39 32 40 3 0 16 -16 28 -35z m3580 -230 c0 -8 6 -15 14 -15 18 0 26 -31
26 -102 0 -47 3 -58 16 -58 14 0 15 -9 10 -62 -3 -35 -9 -96 -12 -135 -6 -68
-8 -73 -30 -73 -13 0 -24 6 -24 13 0 7 -13 24 -30 37 -16 14 -29 31 -30 38 0
6 -7 12 -16 12 -8 0 -12 5 -9 10 3 6 -1 13 -9 16 -10 4 -16 18 -16 35 0 18 -5
29 -14 29 -11 0 -14 13 -14 53 2 68 -10 117 -28 117 -8 0 -14 7 -14 15 0 10
10 15 33 15 20 0 44 9 57 20 13 11 29 20 35 20 7 0 15 7 19 15 3 8 12 15 21
15 8 0 15 -7 15 -15z m-1237 -131 c4 -8 19 -14 32 -14 16 0 25 -6 25 -15 0
-10 10 -15 30 -15 20 0 30 -5 30 -15 0 -8 7 -15 15 -15 8 0 15 -7 15 -15 0 -8
7 -15 15 -15 8 0 15 -7 15 -15 0 -8 7 -15 15 -15 10 0 15 -10 15 -30 0 -21 5
-30 16 -30 13 0 15 -7 10 -31 -3 -17 -7 -70 -7 -118 -1 -47 -4 -75 -6 -61 -6
30 -19 40 -55 40 -51 0 -58 -8 -58 -66 l0 -54 -49 0 c-34 0 -51 4 -55 15 -3 9
-18 15 -36 15 -20 0 -30 5 -30 15 0 10 -10 15 -30 15 -20 0 -30 5 -30 15 0 8
-7 15 -15 15 -8 0 -15 6 -15 14 0 8 -7 16 -15 20 -8 3 -15 17 -15 31 0 16 -6
25 -15 25 -10 0 -15 10 -15 30 0 20 -5 30 -15 30 -12 0 -15 13 -15 60 0 45 3
60 14 60 9 0 16 12 18 28 l3 27 88 -3 87 -3 0 35 c0 37 -13 48 -24 21 -4 -11
-21 -15 -60 -15 -46 0 -56 3 -61 20 -3 11 -4 23 -2 28 9 13 171 1 180 -14z
m237 -480 c0 -8 7 -14 15 -14 18 0 18 2 4 -80 -7 -46 -7 -70 1 -85 8 -15 7
-37 -4 -85 -18 -82 -43 -171 -50 -177 -12 -13 -44 11 -56 42 -8 19 -17 35 -22
35 -4 0 -8 7 -8 15 0 8 -7 15 -15 15 -9 0 -12 6 -9 15 4 8 -1 17 -10 21 -11 4
-14 14 -9 35 4 22 2 29 -10 29 -12 0 -13 7 -6 38 5 20 9 52 9 70 0 22 5 32 16
32 8 0 20 14 25 30 6 17 17 30 25 30 8 0 14 5 14 10 0 6 13 10 29 10 21 0 30
6 34 21 6 23 27 17 27 -7z"/>
<path d="M2640 3450 c0 -5 5 -10 10 -10 6 0 10 5 10 10 0 6 -4 10 -10 10 -5 0
-10 -4 -10 -10z"/>
<path d="M2670 3420 c0 -5 7 -10 15 -10 10 0 15 -10 15 -30 0 -34 15 -40 25
-11 4 13 -1 27 -14 40 -22 22 -41 27 -41 11z"/>
<path d="M2293 3413 c9 -2 23 -2 30 0 6 3 -1 5 -18 5 -16 0 -22 -2 -12 -5z"/>
<path d="M2730 3320 c0 -16 5 -30 10 -30 6 0 10 14 10 30 0 17 -4 30 -10 30
-5 0 -10 -13 -10 -30z"/>
<path d="M1869 3170 l-4 -65 -78 -3 c-56 -2 -77 -6 -74 -15 2 -8 31 -12 88
-12 l84 0 3 40 c2 22 -1 58 -6 80 -9 40 -9 40 -13 -25z"/>
<path d="M1630 3060 c0 -5 18 -10 40 -10 22 0 40 5 40 10 0 6 -18 10 -40 10
-22 0 -40 -4 -40 -10z"/>
<path d="M1590 3030 c0 -5 7 -10 15 -10 8 0 15 5 15 10 0 6 -7 10 -15 10 -8 0
-15 -4 -15 -10z"/>
<path d="M1865 2998 c-2 -7 -6 -64 -8 -127 -2 -77 -7 -116 -15 -119 -7 -2 -12
-10 -12 -18 0 -8 -7 -14 -15 -14 -12 0 -15 17 -15 90 0 53 -4 90 -10 90 -5 0
-10 7 -10 16 0 11 -8 14 -32 12 l-33 -3 -3 -87 c-2 -69 -6 -88 -17 -88 -8 0
-15 -4 -15 -10 0 -5 7 -10 15 -10 10 0 15 -11 15 -35 0 -24 -5 -35 -15 -35
-25 0 -17 -17 10 -22 16 -3 25 -1 25 7 0 14 22 25 51 25 10 0 19 5 19 10 0 6
7 10 15 10 8 0 15 7 15 15 0 10 10 15 30 15 20 0 30 5 30 15 0 10 10 15 29 15
16 0 31 6 35 15 3 8 17 15 31 15 16 0 25 6 25 15 0 8 7 15 15 15 12 0 15 13
15 55 0 42 -3 55 -15 55 -12 0 -15 -13 -15 -55 0 -52 -1 -55 -26 -55 -22 0
-25 4 -24 28 6 80 -1 142 -14 142 -16 0 -26 -51 -26 -137 0 -49 -3 -63 -15
-63 -12 0 -15 18 -15 105 0 87 3 105 15 105 8 0 15 5 15 10 0 15 -50 12 -55
-2z m-85 -187 c0 -67 -3 -90 -14 -94 -23 -9 -26 2 -26 95 0 81 2 88 20 88 19
0 20 -7 20 -89z"/>
<path d="M2047 2966 c-11 -27 -8 -36 8 -36 16 0 17 5 6 34 -7 18 -8 18 -14 2z"/>
<path d="M1605 2800 c-17 -7 -14 -9 13 -9 20 -1 31 3 27 9 -7 12 -13 12 -40 0z"/>
<path d="M1660 2770 c0 -5 5 -10 10 -10 6 0 10 5 10 10 0 6 -4 10 -10 10 -5 0
-10 -4 -10 -10z"/>
<path d="M2133 2674 c-4 -11 -39 -14 -169 -14 l-164 0 0 -30 c0 -16 5 -30 10
-30 5 0 9 6 7 13 -1 9 36 13 156 15 125 2 157 5 157 16 0 18 22 26 78 27 55 1
47 5 -21 12 -35 3 -50 1 -54 -9z"/>
<path d="M3420 2725 c0 -14 5 -25 10 -25 6 0 10 11 10 25 0 14 -4 25 -10 25
-5 0 -10 -11 -10 -25z"/>
<path d="M3390 2648 c0 -32 3 -39 10 -28 13 20 13 70 0 70 -5 0 -10 -19 -10
-42z"/>
<path d="M3120 2620 c0 -5 11 -10 25 -10 14 0 25 5 25 10 0 6 -11 10 -25 10
-14 0 -25 -4 -25 -10z"/>
<path d="M3180 2590 c0 -5 5 -10 10 -10 6 0 10 5 10 10 0 6 -4 10 -10 10 -5 0
-10 -4 -10 -10z"/>
<path d="M3372 2580 c0 -14 2 -19 5 -12 2 6 2 18 0 25 -3 6 -5 1 -5 -13z"/>
<path d="M3210 2545 c0 -14 5 -25 10 -25 6 0 10 11 10 25 0 14 -4 25 -10 25
-5 0 -10 -11 -10 -25z"/>
<path d="M3330 2515 c0 -14 5 -25 10 -25 6 0 10 11 10 25 0 14 -4 25 -10 25
-5 0 -10 -11 -10 -25z"/>
<path d="M3246 2502 c-8 -13 -3 -102 6 -102 4 0 8 25 8 55 0 53 -3 64 -14 47z"/>
<path d="M3170 2350 c0 -5 -11 -10 -25 -10 -16 0 -25 -6 -25 -15 0 -8 -7 -15
-15 -15 -8 0 -15 -9 -15 -20 0 -16 -7 -20 -30 -20 -20 0 -30 -5 -30 -15 0 -8
-7 -15 -15 -15 -8 0 -15 -4 -15 -10 0 -5 -6 -10 -13 -10 -16 0 -47 -36 -47
-55 0 -8 -7 -15 -15 -15 -9 0 -15 -9 -15 -25 0 -16 -6 -25 -15 -25 -10 0 -15
-10 -15 -30 0 -20 5 -30 15 -30 10 0 15 10 15 30 0 20 5 30 15 30 9 0 15 9 15
25 0 14 5 25 10 25 6 0 10 9 10 20 0 13 7 20 20 20 11 0 20 7 20 15 0 8 7 15
15 15 8 0 15 4 15 9 0 5 10 13 23 17 31 10 66 37 67 52 0 7 13 12 30 12 20 0
30 5 30 15 0 8 7 15 15 15 8 0 15 5 15 10 0 6 -9 10 -20 10 -11 0 -20 -4 -20
-10z"/>
<path d="M3210 2001 c0 -5 -9 -11 -20 -14 -11 -3 -20 -12 -20 -20 0 -9 -7 -17
-15 -19 -10 -2 -12 -8 -6 -17 8 -12 14 -10 35 10 14 13 26 30 26 37 0 6 5 12
10 12 6 0 10 5 10 10 0 6 -4 10 -10 10 -5 0 -10 -4 -10 -9z"/>
<path d="M2518 1947 c-26 -10 -28 -15 -28 -64 l0 -53 60 0 c57 0 60 1 60 24 0
23 -5 25 -47 28 -40 3 -48 6 -48 23 0 17 7 20 45 20 33 0 45 4 45 15 0 19 -49
23 -87 7z"/>
<path d="M2400 1865 c0 -63 1 -65 25 -65 24 0 25 2 25 65 0 63 -1 65 -25 65
-24 0 -25 -2 -25 -65z"/>
<path d="M3770 2101 c-15 -29 -13 -46 3 -32 8 6 17 8 20 4 4 -3 7 6 7 20 0 32
-15 35 -30 8z"/>
<path d="M4150 1920 c0 -5 5 -10 10 -10 6 0 10 5 10 10 0 6 -4 10 -10 10 -5 0
-10 -4 -10 -10z"/>
<path d="M634 4754 c3 -9 6 -27 6 -40 0 -16 6 -24 18 -24 35 0 53 37 33 69 -8
12 -12 12 -25 2 -11 -9 -16 -10 -16 -2 0 6 -5 11 -11 11 -6 0 -8 -7 -5 -16z"/>
<path d="M710 4760 c0 -5 4 -10 9 -10 6 0 13 5 16 10 3 6 -1 10 -9 10 -9 0
-16 -4 -16 -10z"/>
<path d="M2 4708 c3 -29 7 -33 36 -36 31 -3 32 -2 32 32 0 35 -1 36 -36 36
-34 0 -35 -1 -32 -32z"/>
<path d="M4482 4625 c0 -16 2 -22 5 -12 2 9 2 23 0 30 -3 6 -5 -1 -5 -18z"/>
<path d="M602 4560 c0 -14 2 -19 5 -12 2 6 2 18 0 25 -3 6 -5 1 -5 -13z"/>
<path d="M905 4530 c-3 -5 -1 -10 4 -10 6 0 11 5 11 10 0 6 -2 10 -4 10 -3 0
-8 -4 -11 -10z"/>
<path d="M20 4337 c0 -13 9 -32 20 -42 20 -18 20 -17 20 13 0 21 -7 35 -20 42
-17 9 -20 8 -20 -13z"/>
<path d="M0 4239 l0 -52 35 6 c19 3 35 2 35 -1 0 -4 9 -8 20 -8 11 0 20 6 20
12 0 7 3 19 6 28 4 11 1 16 -11 16 -12 0 -15 -5 -10 -21 5 -15 3 -20 -6 -17
-8 3 -15 16 -17 29 -3 22 -45 59 -66 59 -3 0 -6 -23 -6 -51z m45 -9 c3 -5 -1
-10 -10 -10 -9 0 -13 5 -10 10 3 6 8 10 10 10 2 0 7 -4 10 -10z"/>
<path d="M830 4280 c0 -5 7 -10 15 -10 8 0 15 5 15 10 0 6 -7 10 -15 10 -8 0
-15 -4 -15 -10z"/>
<path d="M712 4228 c-7 -7 -12 -21 -12 -32 1 -19 1 -20 11 -3 6 9 15 15 20 12
5 -4 7 -10 4 -15 -3 -5 0 -12 6 -15 7 -5 9 4 7 26 -3 36 -17 46 -36 27z"/>
<path d="M0 4085 c0 -34 1 -35 40 -35 39 0 40 1 40 35 0 34 -1 35 -40 35 -39
0 -40 -1 -40 -35z"/>
<path d="M928 4083 c7 -3 16 -2 19 1 4 3 -2 6 -13 5 -11 0 -14 -3 -6 -6z"/>
<path d="M600 4030 c-12 -8 -12 -10 5 -10 11 0 27 5 35 10 12 8 12 10 -5 10
-11 0 -27 -5 -35 -10z"/>
<path d="M0 3942 c0 -23 5 -43 13 -45 10 -4 10 -6 0 -6 -16 -1 -18 -77 -2 -87
6 -3 9 -19 5 -34 -3 -15 -2 -31 2 -34 3 -4 6 -19 7 -34 0 -16 5 -26 13 -24 6
1 12 -5 12 -13 0 -8 -7 -15 -15 -15 -8 0 -15 -4 -15 -10 0 -5 9 -10 20 -10 22
0 24 21 25 237 0 90 -2 103 -17 103 -9 0 -23 3 -32 6 -13 5 -16 -2 -16 -34z"/>
<path d="M4352 3855 c-11 -12 -10 -15 3 -15 8 0 15 7 15 15 0 18 -2 18 -18 0z"/>
<path d="M4 3546 c-13 -34 0 -51 41 -51 37 0 39 2 40 30 0 28 -3 30 -38 33
-26 2 -39 -1 -43 -12z"/>
</g>
</svg>
